Coordinates
version=1
nRows=24
nColumns=38
inDegrees=no

Units are S.I. units (second, meters, Newtons, ...)
If the header above contains a line with 'inDegrees', this indicates whether rotational values are in degrees (yes) or radians (no).

endheader
time	pelvis_tilt	pelvis_list	pelvis_rotation	pelvis_tx	pelvis_ty	pelvis_tz	hip_flexion_r	hip_adduction_r	hip_rotation_r	knee_angle_r	ankle_angle_r	subtalar_angle_r	mtp_angle_r	hip_flexion_l	hip_adduction_l	hip_rotation_l	knee_angle_l	ankle_angle_l	subtalar_angle_l	mtp_angle_l	lumbar_extension	lumbar_bending	lumbar_rotation	arm_flex_r	arm_add_r	arm_rot_r	elbow_flex_r	pro_sup_r	wrist_flex_r	wrist_dev_r	arm_flex_l	arm_add_l	arm_rot_l	elbow_flex_l	pro_sup_l	wrist_flex_l	wrist_dev_l
2.43	1.76037	1.49175	-0.0648792	0.624751	1.54514	0.924677	0.381959	-0.00968213	-0.210524	0.467252	-0.336974	0	0	-0.243777	-0.159771	-0.163258	0.644671	-0.198391	0	0	-0.0767258	0.141882	-0.181172	-0.132502	-0.2744	0.117375	0.770082	1.5708	0	0	-0.0142373	-0.217391	0.185154	0.83778	1.5708	0	0
2.44	1.78019	1.48645	-0.0878537	0.627352	1.55675	0.926161	0.371379	-5.90955e-05	-0.215897	0.477547	-0.327286	0	0	-0.233105	-0.168325	-0.150872	0.688212	-0.216374	0	0	-0.0757854	0.145937	-0.175788	-0.136045	-0.275286	0.120693	0.771517	1.5708	0	0	-0.0229857	-0.216533	0.189017	0.826615	1.5708	0	0
2.45	1.80936	1.48045	-0.120507	0.630079	1.56819	0.92773	0.356742	0.0105	-0.222542	0.482011	-0.318521	0	0	-0.220062	-0.177888	-0.13884	0.737251	-0.234857	0	0	-0.076695	0.150363	-0.169577	-0.1395	-0.276633	0.124566	0.775052	1.5708	0	0	-0.031681	-0.216538	0.193434	0.817061	1.5708	0	0
2.46	1.81465	1.47581	-0.130505	0.632815	1.57933	0.928991	0.344071	0.0189537	-0.233372	0.486479	-0.30777	0	0	-0.201048	-0.185966	-0.127292	0.791475	-0.256284	0	0	-0.0755066	0.153501	-0.165794	-0.139239	-0.28196	0.141396	0.778746	1.5708	0	0	-0.0438925	-0.216685	0.193239	0.811131	1.5708	0	0
2.47	1.81783	1.47114	-0.138287	0.635471	1.59019	0.93012	0.329773	0.0273662	-0.243534	0.486896	-0.301622	0	0	-0.179258	-0.193962	-0.115804	0.848416	-0.273361	0	0	-0.0757594	0.156739	-0.156752	-0.144131	-0.282787	0.139125	0.786942	1.5708	0	0	-0.052443	-0.217262	0.19678	0.805753	1.5708	0	0
2.48	1.82026	1.46617	-0.144476	0.637966	1.60079	0.931125	0.314366	0.0363984	-0.251758	0.484547	-0.293814	0	0	-0.154936	-0.202563	-0.105536	0.907231	-0.289417	0	0	-0.0762107	0.160599	-0.148098	-0.148883	-0.285686	0.140121	0.797615	1.5708	0	0	-0.0604719	-0.218109	0.20163	0.801305	1.5708	0	0
2.49	1.81326	1.46146	-0.140489	0.640274	1.61111	0.931908	0.299969	0.0456766	-0.256641	0.481	-0.281125	0	0	-0.127661	-0.211148	-0.0958494	0.967309	-0.301861	0	0	-0.0755064	0.165092	-0.134137	-0.159155	-0.289591	0.134473	0.813865	1.5708	0	0	-0.0620782	-0.220364	0.21874	0.793093	1.5708	0	0
2.5	1.78628	1.45903	-0.116914	0.642433	1.62114	0.932397	0.290424	0.0522819	-0.263109	0.480892	-0.272223	0	0	-0.0964011	-0.216518	-0.0855515	1.02775	-0.306596	0	0	-0.0725788	0.167064	-0.126844	-0.161223	-0.294159	0.138905	0.824292	1.5708	0	0	-0.0708728	-0.220613	0.220331	0.790746	1.5708	0	0
2.51	1.75745	1.45876	-0.0928234	0.644562	1.63095	0.93286	0.282601	0.0565195	-0.271011	0.48185	-0.268956	0	0	-0.0642776	-0.21933	-0.0788729	1.08692	-0.310795	0	0	-0.0704517	0.166447	-0.121437	-0.15872	-0.298091	0.146158	0.831772	1.5708	0	0	-0.0830831	-0.219996	0.213723	0.792209	1.5708	0	0
2.52	1.74868	1.45896	-0.0871257	0.646467	1.64052	0.933618	0.271714	0.0603489	-0.272733	0.480607	-0.261561	0	0	-0.0334056	-0.221594	-0.0727483	1.14474	-0.314252	0	0	-0.0701753	0.16523	-0.113156	-0.158218	-0.300396	0.146458	0.839165	1.5708	0	0	-0.0895618	-0.220572	0.216111	0.789578	1.5708	0	0
2.53	1.78014	1.45946	-0.120185	0.64818	1.64966	0.934867	0.254788	0.063705	-0.27087	0.475725	-0.255258	0	0	-0.00648829	-0.222348	-0.0663237	1.20002	-0.312335	0	0	-0.075623	0.163201	-0.105838	-0.154759	-0.302013	0.146421	0.844874	1.5708	0	0	-0.0942916	-0.221415	0.217789	0.787436	1.5708	0	0
2.54	1.82018	1.45998	-0.160615	0.649759	1.65867	0.936323	0.235266	0.0670043	-0.268718	0.467118	-0.249386	0	0	0.0195991	-0.221978	-0.0595601	1.2512	-0.300333	0	0	-0.0820964	0.160794	-0.0997212	-0.14963	-0.303251	0.146648	0.848585	1.5708	0	0	-0.0985566	-0.222599	0.219373	0.785373	1.5708	0	0
2.55	1.86685	1.46048	-0.20694	0.651181	1.66757	0.937898	0.213707	0.070205	-0.266291	0.455407	-0.244603	0	0	0.0446983	-0.220294	-0.0525735	1.2966	-0.279202	0	0	-0.0891009	0.158008	-0.0948569	-0.14285	-0.304464	0.14771	0.850458	1.5708	0	0	-0.102859	-0.223953	0.220443	0.78356	1.5708	0	0
2.56	1.90888	1.4614	-0.248914	0.65259	1.67644	0.939424	0.192165	0.0733725	-0.261983	0.441849	-0.240708	0	0	0.0698429	-0.217582	-0.0465601	1.33599	-0.256717	0	0	-0.0948827	0.154473	-0.090828	-0.134702	-0.305439	0.149575	0.8504	1.5708	0	0	-0.108126	-0.225499	0.220408	0.782295	1.5708	0	0
2.57	1.95714	1.46195	-0.295688	0.653868	1.6852	0.940916	0.169104	0.0764472	-0.258338	0.425922	-0.238248	0	0	0.0941782	-0.214291	-0.0396108	1.37068	-0.23249	0	0	-0.099986	0.150451	-0.100085	-0.111946	-0.315012	0.187354	0.84281	1.55081	0	0	-0.123713	-0.225685	0.202671	0.78766	1.5708	0	0
2.58	2.00269	1.46297	-0.339508	0.655076	1.69381	0.942289	0.147342	0.0785769	-0.255338	0.41099	-0.236264	0	0	0.119127	-0.209752	-0.0327234	1.40013	-0.213033	0	0	-0.106288	0.146238	-0.0991433	-0.103848	-0.30922	0.173632	0.841357	1.5708	0	0	-0.130793	-0.227608	0.198968	0.790008	1.5708	0	0
2.59	2.04114	1.46504	-0.377526	0.656274	1.70238	0.943505	0.128116	0.0794849	-0.251676	0.398709	-0.233525	0	0	0.144516	-0.203591	-0.026963	1.42302	-0.201461	0	0	-0.110284	0.141187	-0.0991049	-0.0922055	-0.31029	0.177795	0.83955	1.5708	0	0	-0.138968	-0.229564	0.194503	0.792082	1.5708	0	0
2.6	2.08031	1.46762	-0.417922	0.657532	1.71103	0.944656	0.109544	0.0796502	-0.247426	0.38711	-0.230718	0	0	0.168317	-0.196032	-0.0212866	1.4387	-0.193131	0	0	-0.113766	0.135407	-0.0977014	-0.0810376	-0.310806	0.180048	0.837758	1.5708	0	0	-0.147287	-0.2316	0.190555	0.794067	1.5708	0	0
2.61	2.10783	1.47094	-0.446615	0.658696	1.71976	0.945605	0.0929688	0.078912	-0.24563	0.376611	-0.228067	0	0	0.192853	-0.18861	-0.0169988	1.44862	-0.187193	0	0	-0.115037	0.129531	-0.0962912	-0.0710163	-0.310429	0.179324	0.836178	1.5708	0	0	-0.155446	-0.23356	0.187681	0.795185	1.5708	0	0
2.62	2.13798	1.47457	-0.478471	0.659833	1.72841	0.946434	0.0769565	0.0772589	-0.24517	0.367419	-0.225123	0	0	0.216568	-0.181325	-0.0157967	1.45312	-0.182471	0	0	-0.116465	0.123318	-0.094563	-0.0613348	-0.309104	0.176123	0.835371	1.5708	0	0	-0.163509	-0.235638	0.184842	0.796672	1.5708	0	0
2.63	2.17685	1.47767	-0.520049	0.661026	1.73692	0.947281	0.0607124	0.0751744	-0.246838	0.359459	-0.22284	0	0	0.238172	-0.174641	-0.0170778	1.45192	-0.178094	0	0	-0.119276	0.117234	-0.091877	-0.0515008	-0.30746	0.17192	0.835385	1.5708	0	0	-0.170758	-0.237631	0.181993	0.797918	1.5708	0	0
2.64	2.20095	1.48205	-0.547364	0.662144	1.7454	0.947877	0.0484658	0.0716976	-0.250485	0.356654	-0.218289	0	0	0.260923	-0.167384	-0.019614	1.44609	-0.174786	0	0	-0.119151	0.111419	-0.0839256	-0.046934	-0.307788	0.164166	0.83946	1.5708	0	0	-0.172163	-0.24095	0.190314	0.793831	1.5708	0	0
2.65	2.26266	1.48429	-0.61177	0.663177	1.75382	0.948705	0.0289681	0.0694083	-0.250947	0.344856	-0.215684	0	0	0.278148	-0.160482	-0.0240617	1.43448	-0.169662	0	0	-0.123863	0.104937	-0.0820879	-0.035516	-0.305662	0.160747	0.838565	1.5708	0	0	-0.178947	-0.242716	0.186705	0.795198	1.5708	0	0
2.66	2.37718	1.48128	-0.728391	0.664149	1.76211	0.949958	-0.00253882	0.0700317	-0.245733	0.319049	-0.222131	0	0	0.286424	-0.155284	-0.0306783	1.41703	-0.163057	0	0	-0.137685	0.0991246	-0.0829732	-0.0211439	-0.301379	0.155741	0.838205	1.5708	0	0	-0.188026	-0.243782	0.175481	0.801918	1.5708	0	0
